HIERARCHY
ROOT Hips
{
	OFFSET 0.000000 121.760803 0.000000
	CHANNELS 6 Xposition Yposition Zposition Xrotation Yrotation Zrotation 
	JOINT Spine
	{
		OFFSET 0.072000 7.257294 -0.789700
		CHANNELS 3 Xrotation Yrotation Zrotation
		JOINT Spine1
		{
			OFFSET 0.000000 12.508769 -0.658067
			CHANNELS 3 Xrotation Yrotation Zrotation
			JOINT Spine1_split
			{
				OFFSET 0.000000 12.508769 -0.658067
				CHANNELS 3 Xrotation Yrotation Zrotation
				JOINT Spine2
				{
					OFFSET 0.000000 12.508769 -0.658067
					CHANNELS 3 Xrotation Yrotation Zrotation
					JOINT Neck
					{
						OFFSET 0.000000 14.033295 7.520400
						CHANNELS 3 Xrotation Yrotation Zrotation
						JOINT Head
						{
							OFFSET 0.000000 8.198502 5.703100
							CHANNELS 3 Xrotation Yrotation Zrotation
							JOINT HeadTop_End
							{
								OFFSET 0.000000 17.760803 13.332701
								CHANNELS 3 Xrotation Yrotation Zrotation
								End Site
								{
									OFFSET 0.000000 0.000000 0.000000
								}
							}
						}
					}
					JOINT LeftShoulder
					{
						OFFSET 6.292450 5.785301 -0.669000
						CHANNELS 3 Xrotation Yrotation Zrotation
						JOINT LeftShoulder_split
						{
							OFFSET 6.292450 5.785301 -0.669000
							CHANNELS 3 Xrotation Yrotation Zrotation
							JOINT LeftArm
							{
								OFFSET 13.907140 -6.093903 1.965100
								CHANNELS 3 Xrotation Yrotation Zrotation
								JOINT LeftForeArm
								{
									OFFSET 34.140198 0.000000 0.000000
									CHANNELS 3 Xrotation Yrotation Zrotation
									JOINT LeftHand
									{
										OFFSET 40.960209 0.000000 0.000000
										CHANNELS 3 Xrotation Yrotation Zrotation
										JOINT LeftHandThumb1
										{
											OFFSET 10.006996 -7.170425 9.573125
											CHANNELS 3 Xrotation Yrotation Zrotation
											JOINT LeftHandThumb2
											{
												OFFSET 1.835007 -1.059448 1.059443
												CHANNELS 3 Xrotation Yrotation Zrotation
												JOINT LeftHandThumb3
												{
													OFFSET 2.112267 -1.219513 1.219518
													CHANNELS 3 Xrotation Yrotation Zrotation
													JOINT LeftHandThumb4
													{
														OFFSET 4.843811 -2.796570 2.796576
														CHANNELS 3 Xrotation Yrotation Zrotation
														End Site
														{
															OFFSET 0.000000 0.000000 0.000000
														}
													}
												}
											}
										}
										JOINT LeftHandIndex1
										{
											OFFSET 18.389847 -0.922348 4.596882
											CHANNELS 3 Xrotation Yrotation Zrotation
											JOINT LeftHandIndex2
											{
												OFFSET 4.711273 0.000000 0.000000
												CHANNELS 3 Xrotation Yrotation Zrotation
												JOINT LeftHandIndex3
												{
													OFFSET 2.886131 0.000000 0.000000
													CHANNELS 3 Xrotation Yrotation Zrotation
													JOINT LeftHandIndex4
													{
														OFFSET 6.145912 0.000000 0.000000
														CHANNELS 3 Xrotation Yrotation Zrotation
														End Site
														{
															OFFSET 0.000000 0.000000 0.000000
														}
													}
												}
											}
										}
										JOINT LeftHandMiddle1
										{
											OFFSET 18.013008 0.000000 0.000000
											CHANNELS 3 Xrotation Yrotation Zrotation
											JOINT LeftHandMiddle2
											{
												OFFSET 4.946693 0.000000 0.000000
												CHANNELS 3 Xrotation Yrotation Zrotation
												JOINT LeftHandMiddle3
												{
													OFFSET 3.342232 0.000000 0.000000
													CHANNELS 3 Xrotation Yrotation Zrotation
													JOINT LeftHandMiddle4
													{
														OFFSET 4.461754 0.000000 0.000000
														CHANNELS 3 Xrotation Yrotation Zrotation
														End Site
														{
															OFFSET 0.000000 0.000000 0.000000
														}
													}
												}
											}
										}
										JOINT LeftHandRing1
										{
											OFFSET 15.849892 -0.102921 -4.126150
											CHANNELS 3 Xrotation Yrotation Zrotation
											JOINT LeftHandRing2
											{
												OFFSET 3.527054 0.000000 0.000000
												CHANNELS 3 Xrotation Yrotation Zrotation
												JOINT LeftHandRing3
												{
													OFFSET 2.961098 0.000000 0.000000
													CHANNELS 3 Xrotation Yrotation Zrotation
													JOINT LeftHandRing4
													{
														OFFSET 4.927200 0.000000 0.000000
														CHANNELS 3 Xrotation Yrotation Zrotation
														End Site
														{
															OFFSET 0.000000 0.000000 0.000000
														}
													}
												}
											}
										}
										JOINT LeftHandPinky1
										{
											OFFSET 12.791824 -0.832031 -6.799156
											CHANNELS 3 Xrotation Yrotation Zrotation
											JOINT LeftHandPinky2
											{
												OFFSET 3.327133 0.000000 0.000000
												CHANNELS 3 Xrotation Yrotation Zrotation
												JOINT LeftHandPinky3
												{
													OFFSET 3.014900 0.000000 0.000000
													CHANNELS 3 Xrotation Yrotation Zrotation
													JOINT LeftHandPinky4
													{
														OFFSET 5.847786 0.000000 0.000000
														CHANNELS 3 Xrotation Yrotation Zrotation
														End Site
														{
															OFFSET 0.000000 0.000000 0.000000
														}
													}
												}
											}
										}
									}
								}
							}
						}
					}
					JOINT RightShoulder
					{
						OFFSET -6.292450 5.785301 -0.669000
						CHANNELS 3 Xrotation Yrotation Zrotation
						JOINT RightShoulder_split
						{
							OFFSET -6.292450 5.785301 -0.669000
							CHANNELS 3 Xrotation Yrotation Zrotation
							JOINT RightArm
							{
								OFFSET -13.907140 -6.093903 1.965100
								CHANNELS 3 Xrotation Yrotation Zrotation
								JOINT RightForeArm
								{
									OFFSET -34.140198 0.000000 0.000000
									CHANNELS 3 Xrotation Yrotation Zrotation
									JOINT RightHand
									{
										OFFSET -40.960209 0.000000 0.000000
										CHANNELS 3 Xrotation Yrotation Zrotation
										JOINT RightHandThumb1
										{
											OFFSET -10.007050 -7.170456 9.573117
											CHANNELS 3 Xrotation Yrotation Zrotation
											JOINT RightHandThumb2
											{
												OFFSET -1.835007 -1.059448 1.059443
												CHANNELS 3 Xrotation Yrotation Zrotation
												JOINT RightHandThumb3
												{
													OFFSET -2.112267 -1.219513 1.219518
													CHANNELS 3 Xrotation Yrotation Zrotation
													JOINT RightHandThumb4
													{
														OFFSET -4.843834 -2.796585 2.796590
														CHANNELS 3 Xrotation Yrotation Zrotation
														End Site
														{
															OFFSET 0.000000 0.000000 0.000000
														}
													}
												}
											}
										}
										JOINT RightHandIndex1
										{
											OFFSET -18.389870 -0.922424 4.596786
											CHANNELS 3 Xrotation Yrotation Zrotation
											JOINT RightHandIndex2
											{
												OFFSET -4.711273 0.000000 0.000000
												CHANNELS 3 Xrotation Yrotation Zrotation
												JOINT RightHandIndex3
												{
													OFFSET -2.886131 0.000000 0.000000
													CHANNELS 3 Xrotation Yrotation Zrotation
													JOINT RightHandIndex4
													{
														OFFSET -6.145920 0.000000 0.000000
														CHANNELS 3 Xrotation Yrotation Zrotation
														End Site
														{
															OFFSET 0.000000 0.000000 0.000000
														}
													}
												}
											}
										}
										JOINT RightHandMiddle1
										{
											OFFSET -18.013008 0.000000 0.000000
											CHANNELS 3 Xrotation Yrotation Zrotation
											JOINT RightHandMiddle2
											{
												OFFSET -4.946693 0.000000 0.000000
												CHANNELS 3 Xrotation Yrotation Zrotation
												JOINT RightHandMiddle3
												{
													OFFSET -3.342232 0.000000 0.000000
													CHANNELS 3 Xrotation Yrotation Zrotation
													JOINT RightHandMiddle4
													{
														OFFSET -4.461754 0.000000 0.000000
														CHANNELS 3 Xrotation Yrotation Zrotation
														End Site
														{
															OFFSET 0.000000 0.000000 0.000000
														}
													}
												}
											}
										}
										JOINT RightHandRing1
										{
											OFFSET -15.849876 -0.102936 -4.126237
											CHANNELS 3 Xrotation Yrotation Zrotation
											JOINT RightHandRing2
											{
												OFFSET -3.527054 0.000000 0.000000
												CHANNELS 3 Xrotation Yrotation Zrotation
												JOINT RightHandRing3
												{
													OFFSET -2.961098 0.000000 0.000000
													CHANNELS 3 Xrotation Yrotation Zrotation
													JOINT RightHandRing4
													{
														OFFSET -4.927200 0.000000 0.000000
														CHANNELS 3 Xrotation Yrotation Zrotation
														End Site
														{
															OFFSET 0.000000 0.000000 0.000000
														}
													}
												}
											}
										}
										JOINT RightHandPinky1
										{
											OFFSET -12.791786 -0.832077 -6.799222
											CHANNELS 3 Xrotation Yrotation Zrotation
											JOINT RightHandPinky2
											{
												OFFSET -3.327133 0.000000 0.000000
												CHANNELS 3 Xrotation Yrotation Zrotation
												JOINT RightHandPinky3
												{
													OFFSET -3.014900 0.000000 0.000000
													CHANNELS 3 Xrotation Yrotation Zrotation
													JOINT RightHandPinky4
													{
														OFFSET -5.847786 0.000000 0.000000
														CHANNELS 3 Xrotation Yrotation Zrotation
														End Site
														{
															OFFSET 0.000000 0.000000 0.000000
														}
													}
												}
											}
										}
									}
								}
							}
						}
					}
				}
			}
		}
	}
	JOINT LeftUpLeg
	{
		OFFSET 13.026900 -6.336304 -1.092800
		CHANNELS 3 Xrotation Yrotation Zrotation
		JOINT LeftLeg
		{
			OFFSET 0.524474 -46.096886 9.782700
			CHANNELS 3 Xrotation Yrotation Zrotation
			JOINT LeftFoot
			{
				OFFSET -0.524474 -53.427422 -12.948200
				CHANNELS 3 Xrotation Yrotation Zrotation
				JOINT LeftToeBase
				{
					OFFSET 0.192200 -14.009700 16.364100
					CHANNELS 3 Xrotation Yrotation Zrotation
					JOINT LeftToe_End
					{
						OFFSET -1.784700 -0.561700 9.474800
						CHANNELS 3 Xrotation Yrotation Zrotation
						End Site
						{
							OFFSET 0.000000 0.000000 0.000000
						}
					}
				}
			}
		}
	}
	JOINT RightUpLeg
	{
		OFFSET -12.883000 -6.336304 -1.092800
		CHANNELS 3 Xrotation Yrotation Zrotation
		JOINT RightLeg
		{
			OFFSET -0.524587 -46.096825 9.782800
			CHANNELS 3 Xrotation Yrotation Zrotation
			JOINT RightFoot
			{
				OFFSET 0.524587 -53.427383 -12.948300
				CHANNELS 3 Xrotation Yrotation Zrotation
				JOINT RightToeBase
				{
					OFFSET -0.192200 -14.009700 16.364100
					CHANNELS 3 Xrotation Yrotation Zrotation
					JOINT RightToe_End
					{
						OFFSET 1.784700 -0.561700 9.474800
						CHANNELS 3 Xrotation Yrotation Zrotation
						End Site
						{
							OFFSET 0.000000 0.000000 0.000000
						}
					}
				}
			}
		}
	}
}
MOTION
Frames: 4
Frame Time: 0.016667
-0.353598 105.430504 0.636799 22.597720 -0.664912 -8.988223 8.831019 3.912723 2.436180 -0.486219 1.376179 -0.738725 0.000000 0.000000 0.000000 -0.484350 1.393123 -0.752147 -12.183783 0.616443 0.895270 -13.200941 5.313711 -4.930408 0.000000 0.000001 -0.000001 0.800063 -1.053362 -19.763342 0.000000 0.000000 0.000000 13.552896 -1.213099 -48.473047 0.000012 -65.396855 0.000011 -23.458457 12.668260 -19.629245 74.823985 -40.508114 61.030274 25.114389 4.278447 -82.291820 42.097273 21.884835 -34.007297 0.000001 -0.000002 -0.000001 5.834355 7.878495 -78.812890 5.407310 5.834263 -85.642840 1.801537 4.226827 -46.153548 -0.000000 -0.000001 0.000000 4.932092 8.202268 -90.163387 4.700893 5.737288 -78.644096 3.117987 5.175477 -62.112087 0.000001 -0.000000 0.000002 4.402386 8.246173 -91.663195 5.862431 5.851057 -90.111499 1.899126 4.318186 -47.463370 -0.000000 0.000001 0.000002 5.304515 8.410015 -100.449249 2.535405 4.823626 -55.434649 1.956144 4.369669 -48.216139 -0.000001 0.000000 0.000003 0.203542 7.873807 19.585052 0.000000 0.000000 0.000000 11.893550 -9.449220 48.231627 0.000006 63.147004 -0.000012 -2.319515 -16.349533 7.973146 47.809726 35.835373 -5.333811 34.631334 -33.014505 35.094612 42.386300 -17.521892 37.753625 -0.000001 -0.000002 -0.000002 5.182523 -7.113273 78.876247 4.422140 -4.651249 87.104043 2.569873 -4.164146 63.347184 0.000000 0.000002 -0.000001 7.506149 -6.722315 94.665063 4.366847 -4.648118 86.421953 2.874995 -4.303379 67.478314 -0.000001 -0.000001 0.000000 5.682793 -6.829441 102.073858 3.638055 -4.544521 77.346244 2.856135 -4.295523 67.226642 -0.000002 -0.000001 0.000002 5.373752 -6.885357 99.411771 1.706921 -3.605099 50.661316 2.448591 -4.101190 61.664225 0.000001 0.000001 -0.000003 -55.973247 -1.002895 -0.934326 68.718622 -2.763122 3.368343 7.805046 1.847876 5.835945 -0.941192 -0.034148 1.474779 0.000004 0.000001 -0.000001 -38.028793 -12.993413 1.480008 39.132548 -3.441009 2.768971 -22.339162 -1.394637 4.120284 -2.186259 -0.000004 0.000004 0.000000 0.000000 -0.000000 
-1.121567 104.959618 3.626820 22.895282 -0.761018 -8.795760 8.597984 4.212564 2.072306 -0.496558 1.450543 -0.731986 0.000000 0.000000 0.000000 -0.476998 1.478104 -0.752148 -12.234348 0.523663 0.936671 -13.473429 5.168244 -4.687935 -0.000000 0.000000 -0.000001 0.809868 -1.055531 -19.698329 0.000000 0.000000 0.000000 13.400032 -1.470164 -48.429364 0.000016 -65.609288 0.000002 -23.708575 13.002230 -19.426743 74.823985 -40.508107 61.030274 25.166962 4.373144 -82.354398 42.157037 21.874372 -34.059503 -0.000001 -0.000001 -0.000001 5.840191 7.879081 -78.844972 5.407308 5.834264 -85.642847 1.800388 4.225727 -46.137948 -0.000001 -0.000001 0.000001 4.933143 8.202445 -90.173687 4.700466 5.737204 -78.639800 3.117211 5.175067 -62.103502 0.000000 0.000000 -0.000001 4.398819 8.245263 -91.628449 5.862140 5.851057 -90.108643 1.899775 4.318782 -47.472014 0.000001 0.000000 -0.000002 5.300731 8.409635 -100.413432 2.530731 4.820413 -55.379006 1.956823 4.370274 -48.225090 0.000001 0.000001 -0.000006 0.179714 8.056690 19.469475 0.000000 0.000000 0.000000 11.883982 -9.750491 48.141034 0.000013 64.191477 0.000008 -2.283720 -16.744887 8.133067 47.809733 35.835373 -5.333813 34.631330 -33.014498 35.094612 42.252213 -17.581467 37.606550 0.000001 -0.000004 0.000000 5.188556 -7.114453 78.876507 4.422142 -4.651246 87.104050 2.569299 -4.163857 63.339131 0.000002 -0.000001 0.000004 7.510164 -6.722931 94.643179 4.366597 -4.648091 86.418818 2.874753 -4.303271 67.474933 0.000001 0.000001 0.000003 5.680139 -6.830007 102.040328 3.638049 -4.544536 77.346251 2.856136 -4.295532 67.226670 -0.000001 -0.000000 -0.000001 5.371712 -6.885655 99.386390 1.706646 -3.604873 50.656959 2.448165 -4.100968 61.658392 -0.000001 0.000001 -0.000000 -59.739054 -0.051242 -1.547958 68.949585 -3.675674 3.411375 5.667789 2.572161 5.563678 -0.426851 -0.000002 0.000002 -0.000002 0.000000 0.000000 -36.388765 -13.082106 1.922627 39.333123 -3.145332 2.719370 -24.544300 -1.413721 3.940752 -2.186253 -0.000005 0.000002 -0.000000 0.000001 -0.000000 
-1.884073 104.553886 6.615826 23.197406 -0.850096 -8.573656 8.368851 4.500591 1.681643 -0.507232 1.525119 -0.724558 0.000000 0.000000 0.000000 -0.469541 1.563697 -0.748854 -12.284887 0.430359 0.978020 -13.746419 5.022101 -4.445268 -0.000000 0.000001 -0.000001 0.829645 -1.055383 -19.576799 0.000000 0.000000 0.000000 13.303898 -1.693185 -48.524341 0.000030 -65.794318 0.000040 -24.000856 13.236746 -19.197116 74.823992 -40.508103 61.030267 25.309102 4.629883 -82.525624 42.319893 21.845250 -34.201790 0.000003 0.000000 0.000001 5.855881 7.880572 -78.934427 5.407311 5.834262 -85.642847 1.797003 4.222480 -46.092012 -0.000000 0.000000 0.000002 4.936100 8.202938 -90.202668 4.699358 5.736984 -78.628735 3.115130 5.173977 -62.080436 0.000002 -0.000001 -0.000001 4.389601 8.242896 -91.538837 5.861323 5.851053 -90.100707 1.901642 4.320484 -47.496842 -0.000001 0.000000 -0.000000 5.290380 8.408576 -100.315507 2.518113 4.811712 -55.228725 1.958694 4.371937 -48.249590 -0.000001 -0.000001 0.000000 0.162750 8.201808 19.240264 0.000000 0.000000 0.000000 12.013091 -10.084086 48.107423 0.000017 65.513235 0.000000 -2.194432 -17.182497 8.317059 47.809726 35.835373 -5.333813 34.631334 -33.014505 35.094605 41.903368 -17.731352 37.225521 -0.000001 0.000001 -0.000004 5.206646 -7.117986 78.877258 4.422146 -4.651238 87.104050 2.567699 -4.163059 63.317090 0.000001 -0.000002 -0.000002 7.521368 -6.724544 94.584542 4.365936 -4.648074 86.410697 2.874103 -4.303004 67.466314 0.000001 -0.000002 0.000006 5.673245 -6.831459 101.953844 3.638491 -4.544637 77.351817 2.856141 -4.295529 67.226636 0.000002 -0.000001 -0.000001 5.371513 -6.885572 99.321128 1.705939 -3.604300 50.645754 2.447093 -4.100389 61.643284 0.000001 0.000001 -0.000001 -63.199447 0.958227 -2.123387 68.678761 -4.665383 3.449194 3.717414 3.374766 5.337461 -1.245495 0.000001 -0.000002 -0.000003 0.000000 0.000000 -34.552209 -13.296716 2.405986 39.177043 -2.785108 2.530119 -26.621198 -1.406094 3.748093 -2.186245 -0.000013 -0.000000 0.000000 0.000003 0.000000 
-2.639128 104.154945 9.609055 23.529230 -0.942055 -8.290772 8.138096 4.767124 1.241895 -0.520799 1.601804 -0.710189 0.000000 0.000000 0.000000 -0.460747 1.655478 -0.739868 -12.336255 0.331892 1.018789 -14.027064 4.875323 -4.190919 -0.000000 -0.000000 0.000000 0.857958 -1.055085 -19.402798 0.000000 0.000000 0.000000 13.266431 -1.833224 -48.691657 0.000055 -65.913839 0.000072 -24.290241 13.359650 -18.989946 74.823985 -40.508107 61.030274 25.517162 5.007332 -82.781667 42.561088 21.800430 -34.412604 0.000000 -0.000000 0.000002 5.878714 7.882561 -79.070908 5.407310 5.834261 -85.642840 1.791483 4.217174 -46.017010 -0.000000 -0.000002 0.000001 4.940653 8.203694 -90.247262 4.697845 5.736677 -78.613592 3.112121 5.172381 -62.047050 -0.000000 -0.000001 -0.000001 4.377021 8.239650 -91.416352 5.860111 5.851059 -90.088754 1.904582 4.323174 -47.535832 -0.000001 -0.000000 0.000002 5.274989 8.406978 -100.169847 2.499675 4.798902 -55.008639 1.961467 4.374405 -48.285981 0.000001 -0.000001 0.000004 0.154748 8.315188 18.934697 0.000000 0.000000 0.000000 12.291666 -10.409283 48.204371 0.000029 66.924468 -0.000039 -2.085130 -17.592957 8.432664 47.809726 35.835373 -5.333811 34.631330 -33.014505 35.094605 41.419363 -17.927541 36.700731 0.000000 0.000001 -0.000004 5.237255 -7.123802 78.883972 4.422147 -4.651249 87.104050 2.565314 -4.161861 63.284223 0.000001 0.000001 0.000001 7.538622 -6.726849 94.499629 4.365028 -4.648009 86.399598 2.873211 -4.302640 67.454484 -0.000001 0.000001 0.000001 5.663848 -6.833419 101.835600 3.639150 -4.544764 77.360198 2.856396 -4.295647 67.230160 -0.000003 -0.000002 -0.000000 5.371741 -6.885390 99.231864 1.704977 -3.603517 50.630464 2.445609 -4.099591 61.622595 -0.000004 0.000000 -0.000000 -66.446095 1.947578 -2.679442 67.909538 -5.687768 3.442167 1.932321 4.322839 5.094490 -2.138615 -0.000001 0.000002 -0.000000 -0.000000 -0.000000 -32.628196 -13.586757 2.869005 38.799170 -2.353821 2.243036 -28.600647 -1.381252 3.566041 -2.186253 -0.000002 0.000000 0.000000 0.000000 -0.000000 
